<svg xmlns="http://www.w3.org/2000/svg" xmlns:xlink="http://www.w3.org/1999/xlink" viewBox="0 0 245.64 44.86"><defs><style>.cls-1{fill:url(#linear-gradient);}.cls-2{fill:url(#linear-gradient-2);}.cls-3{fill:url(#linear-gradient-3);}.cls-4{fill:url(#linear-gradient-4);}.cls-5{fill:url(#linear-gradient-5);}.cls-6{fill:url(#linear-gradient-6);}.cls-7{fill:url(#linear-gradient-7);}.cls-8{fill:url(#linear-gradient-8);}.cls-9{fill:url(#linear-gradient-9);}.cls-10{fill:url(#linear-gradient-10);}</style><linearGradient id="linear-gradient" x1="89.18" y1="27.57" x2="225.56" y2="28.52" gradientUnits="userSpaceOnUse"><stop offset="0" stop-color="#0a51a1"/><stop offset="0.42" stop-color="#0f288e"/><stop offset="0.79" stop-color="#120b81"/><stop offset="1" stop-color="#13007c"/></linearGradient><linearGradient id="linear-gradient-2" x1="89.19" y1="26.69" x2="225.57" y2="27.63" xlink:href="#linear-gradient"/><linearGradient id="linear-gradient-3" x1="89.18" y1="27.37" x2="225.56" y2="28.31" gradientUnits="userSpaceOnUse"><stop offset="0" stop-color="#0a51a1"/><stop offset="0.35" stop-color="#0e2e91"/><stop offset="0.42" stop-color="#0f288e"/><stop offset="0.79" stop-color="#120b81"/><stop offset="1" stop-color="#13007c"/></linearGradient><linearGradient id="linear-gradient-4" x1="89.17" y1="27.41" x2="225.55" y2="28.35" xlink:href="#linear-gradient"/><linearGradient id="linear-gradient-5" x1="89.34" y1="4.44" x2="225.72" y2="5.38" gradientUnits="userSpaceOnUse"><stop offset="0" stop-color="#80c41c"/><stop offset="0.2" stop-color="#7cc11d"/><stop offset="0.41" stop-color="#6fba1e"/><stop offset="0.63" stop-color="#5bad22"/><stop offset="0.84" stop-color="#3e9b26"/><stop offset="1" stop-color="#238a2a"/></linearGradient><linearGradient id="linear-gradient-6" x1="89.19" y1="25.95" x2="225.57" y2="26.89" xlink:href="#linear-gradient"/><linearGradient id="linear-gradient-7" x1="89.23" y1="21.54" x2="225.6" y2="22.48" xlink:href="#linear-gradient"/><linearGradient id="linear-gradient-8" x1="4437.29" y1="838.15" x2="4472.96" y2="838.15" gradientTransform="translate(878.72 -4429.17) rotate(90)" xlink:href="#linear-gradient-5"/><linearGradient id="linear-gradient-9" x1="532.01" y1="-56.25" x2="557.78" y2="-56.25" gradientTransform="translate(557.78 -30.3) rotate(180)" xlink:href="#linear-gradient"/><linearGradient id="linear-gradient-10" x1="4437.29" y1="852.95" x2="4472.96" y2="852.95" gradientTransform="translate(878.72 -4429.17) rotate(90)" gradientUnits="userSpaceOnUse"><stop offset="0" stop-color="#67c6dd"/><stop offset="0.17" stop-color="#5ec3db"/><stop offset="0.44" stop-color="#46bad5"/><stop offset="0.78" stop-color="#1eabcd"/><stop offset="1" stop-color="#01a0c6"/></linearGradient></defs><title>Asset 3</title><g id="Layer_2" data-name="Layer 2"><g id="Layer_1-2" data-name="Layer 1"><path class="cls-1" d="M61.07,29.09c0,5,2.56,9.37,7.5,9.37,4.32,0,5.63-1.94,6.56-4.1h8.08C82,38.5,78.37,44.86,68.35,44.86c-10.8,0-15.4-8.3-15.4-17C53,17.6,58.19,10,68.7,10c11.2,0,15,8.39,15,16.3a22.34,22.34,0,0,1-.11,2.79ZM75.58,24c-.07-4.42-2-8.07-6.92-8.07S61.71,19.3,61.27,24Z"/><path class="cls-2" d="M189.06,29.09c0,5,2.55,9.37,7.5,9.37,4.32,0,5.62-1.94,6.56-4.1h8.08c-1.23,4.14-4.85,10.5-14.86,10.5-10.81,0-15.4-8.3-15.4-17,0-10.27,5.24-17.87,15.74-17.87,11.21,0,15,8.39,15,16.3a22.34,22.34,0,0,1-.11,2.79ZM203.56,24c-.06-4.42-2-8.07-6.92-8.07s-6.94,3.4-7.39,8.07Z"/><path class="cls-3" d="M96.11,16.88V10.69H85.4a2.51,2.51,0,0,1,2.58,2c0,2,0,4.26,0,7V44.14h8.09V29c0-8.93,4.14-12.15,10.91-12.1V10.71C101.38,10.78,97.68,12.82,96.11,16.88Z"/><path class="cls-4" d="M122.45,16.9V10.69H109V16.9h5.37V35.62c0,5.75,2.2,9,8.28,9a19,19,0,0,0,5.82-.64V38.27a14.69,14.69,0,0,1-2.38.16c-2.85,0-3.63-1.21-3.63-4V16.9Z"/><path class="cls-5" d="M122.4,1.22V0h-8.07V9.28h0A8.06,8.06,0,0,0,122.4,1.22Z"/><path class="cls-6" d="M168,9.19c-5.57,0-8.56,2.52-10.47,5.41-1.21-2.94-4.07-5.41-8.87-5.41a10.39,10.39,0,0,0-9.48,5.18l0-4.4h-10.7a2.49,2.49,0,0,1,2.61,2.27h0c0,2.12,0,4.26,0,6.4V43.54h8V24.85c0-6,2.06-9,6.39-9s5.38,3.16,5.38,6.92V43.54h8V24.32c0-5.42,1.82-8.5,6.28-8.5,4.29,0,5.49,3.35,5.49,6.67V43.54h7.94v-22C178.57,12.66,173.66,9.19,168,9.19Z"/><path class="cls-7" d="M232.4,23.82l12-12.81H235L222.39,23.82V.28H211.66a2.49,2.49,0,0,1,2.61,2.26v42h8.12V33.43l4.55-4.4,9.43,15.55h9.27Z"/><path class="cls-8" d="M42.54,41.68,53.17,9.94a5.78,5.78,0,0,0,.29-1.82H40.83a5.78,5.78,0,0,1-.29,1.82L29.91,41.68c-.43,1.29-1.29,2.11-2.22,2.11H40.32C41.25,43.79,42.11,43,42.54,41.68Z"/><path class="cls-9" d="M23.55,41.68,12.92,9.94a5.78,5.78,0,0,1-.29-1.82H0A5.78,5.78,0,0,0,.29,9.94L10.92,41.68c.43,1.29,1.29,2.11,2.22,2.11H25.77C24.84,43.79,24,43,23.55,41.68Z"/><path class="cls-10" d="M27.74,41.68,38.37,9.94a5.78,5.78,0,0,0,.29-1.82H26a5.78,5.78,0,0,1-.29,1.82L15.11,41.68c-.43,1.29-1.29,2.11-2.23,2.11H25.52C26.45,43.79,27.31,43,27.74,41.68Z"/></g></g></svg>